<svg width="24" height="24" viewBox="0 0 24 24" fill="none" xmlns="http://www.w3.org/2000/svg">
<mask id="mask0_368_2274" style="mask-type:alpha" maskUnits="userSpaceOnUse" x="0" y="0" width="24" height="24">
<rect width="24" height="24" fill="#D9D9D9"/>
</mask>
<g mask="url(#mask0_368_2274)">
<path d="M12 22.9068L10.55 21.6045C8.86667 20.0851 7.475 18.7744 6.375 17.6724C5.275 16.5705 4.4 15.5812 3.75 14.7046C3.1 13.8281 2.64583 13.0225 2.3875 12.2878C2.12917 11.5532 2 10.8018 2 10.0338C2 8.46431 2.525 7.15363 3.575 6.10175C4.625 5.04987 5.93333 4.52393 7.5 4.52393C8.36667 4.52393 9.19167 4.70759 9.975 5.07491C10.7583 5.44224 11.4333 5.95983 12 6.62769C12.5667 5.95983 13.2417 5.44224 14.025 5.07491C14.8083 4.70759 15.6333 4.52393 16.5 4.52393C18.0667 4.52393 19.375 5.04987 20.425 6.10175C21.475 7.15363 22 8.46431 22 10.0338C22 10.8018 21.8708 11.5532 21.6125 12.2878C21.3542 13.0225 20.9 13.8281 20.25 14.7046C19.6 15.5812 18.725 16.5705 17.625 17.6724C16.525 18.7744 15.1333 20.0851 13.45 21.6045L12 22.9068ZM12 20.202C13.6 18.7661 14.9167 17.5347 15.95 16.5079C16.9833 15.481 17.8 14.5878 18.4 13.8281C19 13.0684 19.4167 12.3922 19.65 11.7994C19.8833 11.2067 20 10.6182 20 10.0338C20 9.03199 19.6667 8.19716 19 7.5293C18.3333 6.86144 17.5 6.52751 16.5 6.52751C15.7167 6.52751 14.9917 6.74874 14.325 7.1912C13.6583 7.63366 13.2 8.19716 12.95 8.88172H11.05C10.8 8.19716 10.3417 7.63366 9.675 7.1912C9.00833 6.74874 8.28333 6.52751 7.5 6.52751C6.5 6.52751 5.66667 6.86144 5 7.5293C4.33333 8.19716 4 9.03199 4 10.0338C4 10.6182 4.11667 11.2067 4.35 11.7994C4.58333 12.3922 5 13.0684 5.6 13.8281C6.2 14.5878 7.01667 15.481 8.05 16.5079C9.08333 17.5347 10.4 18.7661 12 20.202Z" fill="#1C1B1F"/>
</g>
</svg>
