<svg width="24" height="24" viewBox="0 0 24 24" fill="none" xmlns="http://www.w3.org/2000/svg">
<g clip-path="url(#clip0_432_2277)">
<path d="M0 0C7.92 0 15.84 0 24 0C24 7.92 24 15.84 24 24C16.08 24 8.16 24 0 24C0 16.08 0 8.16 0 0Z" fill="#E84544"/>
<path d="M6.25342 13.0286C10.0461 13.0286 13.8388 13.0286 17.7464 13.0286C17.5867 14.4863 17.5032 15.0958 16.5633 16.1143C15.695 16.7727 14.6314 17.4857 13.521 17.4857C13.521 17.6554 13.521 17.8251 13.521 18C12.5729 18 11.6247 18 10.6478 18C10.6478 17.8303 10.6478 17.6606 10.6478 17.4857C10.4805 17.4716 10.3131 17.4574 10.1407 17.4428C8.78975 17.2384 7.77272 16.4961 6.92947 15.4286C6.36899 14.5616 6.25342 14.1054 6.25342 13.0286Z" fill="#FBEEE2"/>
<path d="M11.3238 7.54285C11.3795 7.54285 11.4353 7.54285 11.4928 7.54285C11.5133 7.65665 11.5337 7.77046 11.5548 7.88771C11.7208 8.81941 11.7208 8.81941 12.0315 9.70713C12.2824 10.4511 12.1181 11.2033 11.8202 11.9143C11.7679 11.9991 11.7157 12.084 11.6618 12.1714C11.606 12.1714 11.5502 12.1714 11.4928 12.1714C11.4703 12.0145 11.4479 11.8576 11.4248 11.696C11.3949 11.4922 11.3651 11.2885 11.3343 11.0786C11.3049 10.8757 11.2755 10.6728 11.2452 10.4638C11.1827 9.95879 11.1827 9.95879 10.9857 9.59999C10.9573 9.24709 10.9573 9.24709 10.954 8.83928C10.9516 8.70514 10.9492 8.571 10.9468 8.4328C10.9857 8.05713 10.9857 8.05713 11.3238 7.54285Z" fill="#F9DFD4"/>
<path d="M12.338 5.48572C12.3938 5.48572 12.4495 5.48572 12.507 5.48572C12.5275 5.60151 12.548 5.71731 12.5691 5.83661C12.5974 5.98953 12.6257 6.14245 12.6549 6.3C12.6824 6.45116 12.7098 6.60231 12.7381 6.75804C12.8401 7.17957 12.9921 7.50062 13.1831 7.88572C13.2598 8.74222 13.1925 9.25135 12.676 9.94286C12.6203 9.94286 12.5645 9.94286 12.507 9.94286C12.4987 9.82508 12.4905 9.70729 12.4819 9.58594C12.4693 9.43147 12.4567 9.27701 12.4436 9.11786C12.4319 8.96472 12.4201 8.81158 12.408 8.6538C12.3606 8.18675 12.3606 8.18675 12 7.71429C11.9551 7.30715 11.9551 7.30715 11.9577 6.85715C11.9568 6.70865 11.956 6.56015 11.9551 6.40715C12 6 12 6 12.338 5.48572Z" fill="#F9DCD1"/>
</g>
<defs>
<clipPath id="clip0_432_2277">
<rect width="24" height="24" rx="5" fill="white"/>
</clipPath>
</defs>
</svg>
