<svg width="24" height="24" viewBox="0 0 24 24" fill="none" xmlns="http://www.w3.org/2000/svg">
<mask id="mask0_368_2277" style="mask-type:alpha" maskUnits="userSpaceOnUse" x="0" y="0" width="24" height="24">
<rect width="24" height="24" fill="#D9D9D9"/>
</mask>
<g mask="url(#mask0_368_2277)">
<path d="M7 23.9086V14.7422C6.15 14.5084 5.4375 14.0409 4.8625 13.3397C4.2875 12.6384 4 11.8203 4 10.8853V3.87274H6V10.8853H7V3.87274H9V10.8853H10V3.87274H12V10.8853C12 11.8203 11.7125 12.6384 11.1375 13.3397C10.5625 14.0409 9.85 14.5084 9 14.7422V23.9086H7ZM17 23.9086V15.8942H14V8.8817C14 7.49589 14.4875 6.31461 15.4625 5.33786C16.4375 4.36112 17.6167 3.87274 19 3.87274V23.9086H17Z" fill="#1C1B1F"/>
</g>
</svg>
